<svg xmlns="http://www.w3.org/2000/svg" xmlns:xlink="http://www.w3.org/1999/xlink" viewBox="0 0 5560 1700.72"><defs><style>.cls-1{fill:none;}.cls-2{clip-path:url(#clip-path);}.cls-3{fill:#ffebeb;}</style><clipPath id="clip-path"><rect class="cls-1" width="2560" height="1636.72"/></clipPath></defs><title>10</title><g class="cls-2"><path class="cls-3" d="M2016.35-11.46c4,92,8,272-332,272-376.19,0-292,316-280,396s49.21,345.1-278,474c-132,52-252,116-336,256-193.33,322.22-582,174-798,138V-14.53ZM246.35,1131.9A44.64,44.64,0,1,0,291,1176.54,44.63,44.63,0,0,0,246.35,1131.9ZM587.72,1269a24.93,24.93,0,1,0,24.93,24.92A24.92,24.92,0,0,0,587.72,1269Zm291.72-211.66A44.64,44.64,0,1,0,924.08,1102,44.63,44.63,0,0,0,879.44,1057.33Zm621-881.94a18.24,18.24,0,1,0,18.23,18.23A18.23,18.23,0,0,0,1500.46,175.39ZM957.37,1019.76a21.55,21.55,0,1,0,21.55,21.55A21.55,21.55,0,0,0,957.37,1019.76Zm447.41-891.22a31,31,0,1,0,31,31A31,31,0,0,0,1404.78,128.54Z"/></g></svg>