<svg xmlns="http://www.w3.org/2000/svg" viewBox="0 0 704.5 494"><defs><style>.cls-1{fill:#ffdbdb;}</style></defs><g id="Layer_2" data-name="Layer 2"><g id="Layer_1-2" data-name="Layer 1"><path class="cls-1" d="M.37.36,702.45,0C708.63,0,699,27.51,698,30.23,692.09,47,681.37,54.58,663.08,58.51c-31.77,6.84-65.42,2.21-97.66,4.59-22.49,1.66-61.37,6.07-76.69,24.34-7.83,9.33-9.47,22.71-9.89,34.3-.92,24.93,4.16,49.67,10.62,73.67,6,22.36,16.33,44.19,15.79,67.77-1.68,73.16-98.76,80.17-153.84,70.34-49-8.75-88.18,35.26-114,69.35-14.4,19-26.38,40.67-41,60-7.21,9.52-14.29,21.46-25.38,27.25-7.26,3.78-18.45,3.84-26.48,3.91-38.52.35-76.67-16.14-109.75-33.92A346.54,346.54,0,0,1,0,439.12Z"/></g></g></svg>